<?xml version="1.0" encoding="utf-8"?>
<!-- Generator: Adobe Illustrator 25.2.0, SVG Export Plug-In . SVG Version: 6.00 Build 0)  -->
<svg version="1.1" id="Layer_1" xmlns="http://www.w3.org/2000/svg" xmlns:xlink="http://www.w3.org/1999/xlink" x="0px" y="0px"
	 viewBox="0 0 38.5 38.5" style="enable-background:new 0 0 38.5 38.5;" xml:space="preserve">
<path d="M26.1,18.4c0,1.5,0,3,0,4.5s-0.1,2.9-0.3,4.3c-0.1,1.3-0.4,2.6-0.7,3.8c-0.3,1.1-0.8,2.2-1.4,3.1c-0.6,0.9-1.4,1.6-2.4,2.2
	c-1.1,0.6-2.3,0.9-3.6,0.9l-4.9,0.3v-0.9c0.3,0,0.7,0,1-0.1c0.3,0,0.5-0.1,0.7-0.3c0.2-0.2,0.4-0.4,0.4-0.6c0.1-0.4,0.2-0.7,0.1-1.1
	l0.2-30.7c0-0.4,0-0.9-0.2-1.3c-0.1-0.3-0.3-0.5-0.6-0.6c-0.3-0.1-0.6-0.2-0.9-0.2h-1.2V0.9h5.2c1.2,0,2.5,0.2,3.6,0.7
	c0.9,0.4,1.8,1.1,2.4,1.9c0.7,0.9,1.1,1.8,1.4,2.9c0.3,1.2,0.6,2.4,0.7,3.6c0.2,1.4,0.3,2.7,0.3,4.1C26.1,15.6,26.1,17,26.1,18.4z
	 M23.5,18c0-2.8,0-5.3-0.1-7.3c0-1.7-0.3-3.4-0.7-5c-0.3-1.1-0.9-2.1-1.8-2.9c-0.9-0.7-2.1-1-3.2-0.9l-0.2,34.4
	c1.3,0.1,2.5-0.4,3.3-1.4c0.9-1.1,1.5-2.4,1.8-3.8c0.4-1.9,0.7-3.8,0.8-5.8C23.5,23.1,23.5,20.7,23.5,18z"/>
</svg>
